<mxfile host="65bd71144e">
    <diagram id="3D6I8Cj4Tu7G51ts96L1" name="Page-1">
        <mxGraphModel dx="1151" dy="526" grid="1" gridSize="10" guides="1" tooltips="1" connect="1" arrows="1" fold="1" page="1" pageScale="1" pageWidth="827" pageHeight="1169" math="0" shadow="0">
            <root>
                <mxCell id="0"/>
                <mxCell id="1" parent="0"/>
                <mxCell id="2" value="User enters location in search bar" style="rounded=1;whiteSpace=wrap;html=1;" vertex="1" parent="1">
                    <mxGeometry x="280" y="60" width="120" height="60" as="geometry"/>
                </mxCell>
                <mxCell id="3" value="" style="endArrow=classic;html=1;" edge="1" parent="1">
                    <mxGeometry width="50" height="50" relative="1" as="geometry">
                        <mxPoint x="190" y="89.5" as="sourcePoint"/>
                        <mxPoint x="280" y="89.5" as="targetPoint"/>
                        <Array as="points">
                            <mxPoint x="240" y="89.5"/>
                        </Array>
                    </mxGeometry>
                </mxCell>
                <mxCell id="4" value="Landing Page" style="ellipse;whiteSpace=wrap;html=1;" vertex="1" parent="1">
                    <mxGeometry x="110" y="50" width="80" height="80" as="geometry"/>
                </mxCell>
                <mxCell id="5" value="" style="endArrow=classic;html=1;" edge="1" parent="1" target="6">
                    <mxGeometry width="50" height="50" relative="1" as="geometry">
                        <mxPoint x="400" y="90" as="sourcePoint"/>
                        <mxPoint x="480" y="90" as="targetPoint"/>
                    </mxGeometry>
                </mxCell>
                <mxCell id="6" value="Results appear on map" style="rhombus;whiteSpace=wrap;html=1;" vertex="1" parent="1">
                    <mxGeometry x="440" y="50" width="80" height="80" as="geometry"/>
                </mxCell>
                <mxCell id="7" value="" style="endArrow=classic;html=1;" edge="1" parent="1">
                    <mxGeometry width="50" height="50" relative="1" as="geometry">
                        <mxPoint x="479.5" y="130" as="sourcePoint"/>
                        <mxPoint x="479.5" y="200" as="targetPoint"/>
                    </mxGeometry>
                </mxCell>
                <mxCell id="8" value="" style="endArrow=classic;html=1;" edge="1" parent="1" target="9">
                    <mxGeometry width="50" height="50" relative="1" as="geometry">
                        <mxPoint x="520" y="90" as="sourcePoint"/>
                        <mxPoint x="610" y="90" as="targetPoint"/>
                    </mxGeometry>
                </mxCell>
                <mxCell id="9" value="User clicks on pin - - pin enlarges and results appear in LH panel" style="rounded=1;whiteSpace=wrap;html=1;" vertex="1" parent="1">
                    <mxGeometry x="550" y="60" width="240" height="60" as="geometry"/>
                </mxCell>
                <mxCell id="10" value="User selects filter from top bar" style="rounded=1;whiteSpace=wrap;html=1;" vertex="1" parent="1">
                    <mxGeometry x="420" y="200" width="120" height="60" as="geometry"/>
                </mxCell>
                <mxCell id="11" value="" style="endArrow=classic;html=1;" edge="1" parent="1" target="12">
                    <mxGeometry width="50" height="50" relative="1" as="geometry">
                        <mxPoint x="120" y="120" as="sourcePoint"/>
                        <mxPoint x="60" y="190" as="targetPoint"/>
                    </mxGeometry>
                </mxCell>
                <mxCell id="12" value="User selects Profile/Login in top right corner" style="rounded=1;whiteSpace=wrap;html=1;" vertex="1" parent="1">
                    <mxGeometry y="190" width="120" height="60" as="geometry"/>
                </mxCell>
                <mxCell id="13" value="" style="endArrow=classic;html=1;" edge="1" parent="1" target="14">
                    <mxGeometry width="50" height="50" relative="1" as="geometry">
                        <mxPoint x="170" y="120" as="sourcePoint"/>
                        <mxPoint x="220" y="190" as="targetPoint"/>
                    </mxGeometry>
                </mxCell>
                <mxCell id="14" value="User clicks 'Add Event'" style="rounded=1;whiteSpace=wrap;html=1;" vertex="1" parent="1">
                    <mxGeometry x="170" y="190" width="120" height="60" as="geometry"/>
                </mxCell>
                <mxCell id="15" value="" style="endArrow=classic;html=1;" edge="1" parent="1" target="16">
                    <mxGeometry width="50" height="50" relative="1" as="geometry">
                        <mxPoint x="59.5" y="250" as="sourcePoint"/>
                        <mxPoint x="59.5" y="320" as="targetPoint"/>
                    </mxGeometry>
                </mxCell>
                <mxCell id="16" value="User can enter/modify personal details or preferences" style="rounded=1;whiteSpace=wrap;html=1;" vertex="1" parent="1">
                    <mxGeometry y="310" width="120" height="60" as="geometry"/>
                </mxCell>
                <mxCell id="17" value="" style="endArrow=classic;html=1;" edge="1" parent="1" target="18">
                    <mxGeometry width="50" height="50" relative="1" as="geometry">
                        <mxPoint x="540" y="230" as="sourcePoint"/>
                        <mxPoint x="600" y="230" as="targetPoint"/>
                    </mxGeometry>
                </mxCell>
                <mxCell id="18" value="Filtered options appear as blue pins instead of orange" style="rounded=1;whiteSpace=wrap;html=1;" vertex="1" parent="1">
                    <mxGeometry x="620" y="200" width="120" height="60" as="geometry"/>
                </mxCell>
                <mxCell id="19" value="" style="endArrow=classic;html=1;entryX=0.544;entryY=1.05;entryDx=0;entryDy=0;entryPerimeter=0;exitX=0.5;exitY=0;exitDx=0;exitDy=0;" edge="1" parent="1" source="18" target="9">
                    <mxGeometry width="50" height="50" relative="1" as="geometry">
                        <mxPoint x="650" y="200" as="sourcePoint"/>
                        <mxPoint x="700" y="150" as="targetPoint"/>
                    </mxGeometry>
                </mxCell>
                <mxCell id="20" value="" style="endArrow=classic;html=1;" edge="1" parent="1" target="21">
                    <mxGeometry width="50" height="50" relative="1" as="geometry">
                        <mxPoint x="229.5" y="250" as="sourcePoint"/>
                        <mxPoint x="229.5" y="320" as="targetPoint"/>
                    </mxGeometry>
                </mxCell>
                <mxCell id="21" value="User completes form with details of local event" style="rounded=1;whiteSpace=wrap;html=1;" vertex="1" parent="1">
                    <mxGeometry x="170" y="310" width="120" height="60" as="geometry"/>
                </mxCell>
            </root>
        </mxGraphModel>
    </diagram>
</mxfile>